<?xml version="1.0" encoding="UTF-8" standalone="no"?>
<svg
   xmlns:dc="http://purl.org/dc/elements/1.1/"
   xmlns:cc="http://creativecommons.org/ns#"
   xmlns:rdf="http://www.w3.org/1999/02/22-rdf-syntax-ns#"
   xmlns:svg="http://www.w3.org/2000/svg"
   xmlns="http://www.w3.org/2000/svg"
   xmlns:sodipodi="http://sodipodi.sourceforge.net/DTD/sodipodi-0.dtd"
   xmlns:inkscape="http://www.inkscape.org/namespaces/inkscape"
   version="1.1"
   x="0"
   y="0"
   width="461.05566"
   height="557.46765"
   viewBox="0 0 461.05566 557.46765"
   id="svg884"
   sodipodi:docname="nikuman_head-0052296jxlozo.svg"
   inkscape:version="1.0.2 (e86c8708, 2021-01-15)">
  <metadata
     id="metadata890">
    <rdf:RDF>
      <cc:Work
         rdf:about="">
        <dc:format>image/svg+xml</dc:format>
        <dc:type
           rdf:resource="http://purl.org/dc/dcmitype/StillImage" />
        <dc:title></dc:title>
      </cc:Work>
    </rdf:RDF>
  </metadata>
  <defs
     id="defs888" />
  <sodipodi:namedview
     pagecolor="#ffffff"
     bordercolor="#666666"
     borderopacity="1"
     objecttolerance="10"
     gridtolerance="10"
     guidetolerance="10"
     inkscape:pageopacity="0"
     inkscape:pageshadow="2"
     inkscape:window-width="1489"
     inkscape:window-height="1035"
     id="namedview886"
     showgrid="false"
     fit-margin-top="0"
     fit-margin-left="0"
     fit-margin-right="0"
     fit-margin-bottom="0"
     inkscape:zoom="0.9775641"
     inkscape:cx="230.7054"
     inkscape:cy="278.55742"
     inkscape:window-x="0"
     inkscape:window-y="23"
     inkscape:window-maximized="0"
     inkscape:current-layer="svg884" />
  <g
     id="Layer_1"
     transform="translate(-81.294604,-33.442578)">
    <path
       d="m 185.276,340.501 -63.774,-14.463 c 0,0 -2.329,-9.306 -12.1,-13.037 -9.761,-3.721 -22.817,29.317 -7.939,43.75 14.917,14.444 71.675,17.237 71.675,17.237"
       fill="#fbe2c8"
       id="path833" />
    <path
       d="m 185.276,340.501 -63.774,-14.463 c 0,0 -2.329,-9.306 -12.1,-13.037 -9.761,-3.721 -22.817,29.317 -7.939,43.75 14.917,14.444 71.675,17.237 71.675,17.237"
       fill-opacity="0"
       stroke="#3c2c1e"
       stroke-width="10"
       stroke-linecap="round"
       stroke-linejoin="round"
       id="path835" />
    <path
       d="m 244.212,515.941 -3.285,48.193 c 0,0 -16.461,11.593 -13.169,17.843 3.295,6.25 40.59,6.239 46.073,-8.927 5.478,-15.176 10.957,-58.906 10.957,-58.906"
       fill="#fbe2c8"
       id="path837" />
    <path
       d="m 244.212,515.941 -3.285,48.193 c 0,0 -16.461,11.593 -13.169,17.843 3.295,6.25 40.59,6.239 46.073,-8.927 5.478,-15.176 10.957,-58.906 10.957,-58.906"
       fill-opacity="0"
       stroke="#3c2c1e"
       stroke-width="10"
       stroke-linecap="round"
       stroke-linejoin="round"
       id="path839" />
    <path
       d="m 452.542,370.472 62.607,15.41 c 0,0 6.162,-7.196 16.426,-6.162 10.254,1.025 7.207,35.918 -12.324,42.08 -19.492,6.152 -70.811,-16.416 -70.811,-16.416"
       fill="#fbe2c8"
       id="path841" />
    <path
       d="m 452.542,370.472 62.607,15.41 c 0,0 6.162,-7.196 16.426,-6.162 10.254,1.025 7.207,35.918 -12.324,42.08 -19.492,6.152 -70.811,-16.416 -70.811,-16.416"
       fill-opacity="0"
       stroke="#3c2c1e"
       stroke-width="10"
       stroke-linecap="round"
       stroke-linejoin="round"
       id="path843" />
    <path
       d="M 383.714,515.941 387,564.134 c 0,0 16.46,11.593 13.174,17.843 -3.301,6.25 -40.601,6.239 -46.07,-8.927 -5.478,-15.176 -10.962,-58.906 -10.962,-58.906"
       fill="#fbe2c8"
       id="path845" />
    <path
       d="M 383.714,515.941 387,564.134 c 0,0 16.46,11.593 13.174,17.843 -3.301,6.25 -40.601,6.239 -46.07,-8.927 -5.478,-15.176 -10.962,-58.906 -10.962,-58.906"
       fill-opacity="0"
       stroke="#3c2c1e"
       stroke-width="10"
       stroke-linecap="round"
       stroke-linejoin="round"
       id="path847" />
    <path
       d="m 236.238,348.294 c 0,0 -47.93,-23.349 -55.293,-18.857 -7.382,4.482 -22.124,64.677 -15.669,67.374 6.446,2.704 58.985,7.187 58.985,7.187 0,0 -5.532,57.5 0.913,57.5 6.469,0 188.96,1.796 191.728,-1.788 2.754,-3.603 -4.604,-52.119 -4.604,-52.119 l 30.421,9.883 c 0,0 33.182,-51.211 28.568,-55.703 -4.605,-4.483 -49.779,-25.157 -49.779,-25.157"
       fill="#dd4347"
       id="path849" />
    <path
       d="m 236.238,348.294 c 0,0 -47.93,-23.349 -55.293,-18.857 -7.382,4.482 -22.124,64.677 -15.669,67.374 6.446,2.704 58.985,7.187 58.985,7.187 0,0 -5.532,57.5 0.913,57.5 6.469,0 188.96,1.796 191.728,-1.788 2.754,-3.603 -4.604,-52.119 -4.604,-52.119 l 30.421,9.883 c 0,0 33.182,-51.211 28.568,-55.703 -4.605,-4.483 -49.779,-25.157 -49.779,-25.157"
       fill-opacity="0"
       stroke="#3c2c1e"
       stroke-width="10"
       stroke-linecap="round"
       stroke-linejoin="round"
       id="path851" />
    <path
       d="m 220.54,515.042 c 12.495,0 77.632,2.676 80.308,1.787 2.68,-0.888 12.504,-15.166 12.504,-15.166 0,0 11.592,18.741 16.949,18.741 5.351,0 86.499,0.761 92.822,-2.676 9.805,-5.362 -16.958,-161.533 -16.958,-161.533 l -26.782,2.675 c 0,0 3.579,77.647 0,77.647 -3.57,0 -129.39,2.676 -130.284,-0.889 -0.893,-3.574 0.884,-75.859 0.884,-75.859 0,0 -19.624,-4.463 -22.295,-4.463 -2.675,0 -19.633,159.736 -7.148,159.736"
       fill="#444443"
       id="path853" />
    <path
       d="m 220.54,515.042 c 12.495,0 77.632,2.676 80.308,1.787 2.68,-0.888 12.504,-15.166 12.504,-15.166 0,0 11.592,18.741 16.949,18.741 5.351,0 86.499,0.761 92.822,-2.676 9.805,-5.362 -16.958,-161.533 -16.958,-161.533 l -26.782,2.675 c 0,0 3.579,77.647 0,77.647 -3.57,0 -129.39,2.676 -130.284,-0.889 -0.893,-3.574 0.884,-75.859 0.884,-75.859 0,0 -19.624,-4.463 -22.295,-4.463 -2.675,0 -19.633,159.736 -7.148,159.736 z"
       fill-opacity="0"
       stroke="#3c2c1e"
       stroke-width="10"
       stroke-linecap="round"
       stroke-linejoin="round"
       id="path855" />
    <path
       d="m 306.498,363.236 c -65.074,0 -231.339,-22.774 -219.625,-130.8 11.714,-108.029 97.612,-115.831 118.433,-124.943 20.825,-9.111 38.72,-37.743 38.72,-37.743 0,0 11.387,-26.036 24.405,-27.334 13.012,-1.3 18.222,14.316 18.222,14.316 0,0 9.107,-19.522 22.124,-18.223 13.013,1.309 16.919,16.924 16.919,16.924 0,0 3.906,-18.223 22.124,-16.924 18.223,1.309 22.124,23.428 22.124,23.428 0,0 16.924,29.931 37.744,39.043 20.826,9.111 106.573,16.943 118.438,124.951 13.008,118.428 -154.551,137.305 -219.628,137.305"
       fill="#fbe2c8"
       id="path857" />
    <path
       d="m 306.498,363.236 c -65.074,0 -231.339,-22.774 -219.625,-130.8 11.714,-108.029 97.612,-115.831 118.433,-124.943 20.825,-9.111 38.72,-37.743 38.72,-37.743 0,0 11.387,-26.036 24.405,-27.334 13.012,-1.3 18.222,14.316 18.222,14.316 0,0 9.107,-19.522 22.124,-18.223 13.013,1.309 16.919,16.924 16.919,16.924 0,0 3.906,-18.223 22.124,-16.924 18.223,1.309 22.124,23.428 22.124,23.428 0,0 16.924,29.931 37.744,39.043 20.826,9.111 106.573,16.943 118.438,124.951 13.008,118.428 -154.551,137.305 -219.628,137.305 z"
       fill-opacity="0"
       stroke="#3c2c1e"
       stroke-width="10"
       stroke-linecap="round"
       stroke-linejoin="round"
       id="path859" />
    <path
       d="m 258.021,102.288 c 0,0 -7.159,11.71 -18.873,16.914 m 66.373,-19.521 -0.65,24.726 M 347.82,95.775 c 0,0 8.462,13.671 24.732,18.223"
       fill-opacity="0"
       stroke="#cfb59c"
       stroke-width="10"
       stroke-linecap="round"
       stroke-linejoin="round"
       id="path861" />
    <path
       d="m 285.375,201.907 c 0,25.02 -20.284,45.293 -45.314,45.293 -25.019,0 -45.297,-20.273 -45.297,-45.293 0,-25.039 20.278,-45.302 45.297,-45.302 25.03,0 45.314,20.263 45.314,45.302"
       fill="#e6753b"
       id="path863" />
    <path
       d="m 232.425,174.632 c 1.523,3.369 -1.597,8.057 -6.949,10.459 -5.361,2.393 -10.927,1.602 -12.446,-1.777 -1.509,-3.389 1.602,-8.076 6.953,-10.479 5.362,-2.392 10.934,-1.592 12.442,1.797"
       fill="#fffffe"
       id="path865" />
    <path
       d="m 446.453,201.907 c 0,25.02 -20.278,45.293 -45.307,45.293 -25.015,0 -45.302,-20.273 -45.302,-45.293 0,-25.039 20.287,-45.302 45.302,-45.302 25.029,0 45.307,20.263 45.307,45.302"
       fill="#e6753b"
       id="path867" />
    <path
       d="m 393.504,174.632 c 1.528,3.369 -1.597,8.057 -6.944,10.459 -5.361,2.393 -10.932,1.602 -12.445,-1.777 -1.515,-3.389 1.591,-8.076 6.952,-10.479 5.362,-2.392 10.933,-1.592 12.437,1.797"
       fill="#fffffe"
       id="path869" />
    <path
       d="m 255.857,150.687 24.297,17.353"
       fill="#fbe2c8"
       id="path871" />
    <path
       d="m 255.857,150.687 24.297,17.353"
       fill-opacity="0"
       stroke="#3c2c1e"
       stroke-width="10"
       stroke-linecap="round"
       stroke-linejoin="round"
       id="path873" />
    <path
       d="m 374.705,150.989 -24.243,16.719"
       fill="#fbe2c8"
       id="path875" />
    <path
       d="m 374.705,150.989 -24.243,16.719"
       fill-opacity="0"
       stroke="#3c2c1e"
       stroke-width="10"
       stroke-linecap="round"
       stroke-linejoin="round"
       id="path877" />
    <path
       d="m 285.375,201.907 32.089,34.668 26.894,-36.435"
       fill="#fbe2c8"
       id="path879" />
    <path
       d="m 285.375,201.907 32.089,34.668 26.894,-36.435"
       fill-opacity="0"
       stroke="#3c2c1e"
       stroke-width="10"
       stroke-linecap="round"
       stroke-linejoin="round"
       id="path881" />
  </g>
</svg>
